<svg width="40" height="40" viewBox="0 0 40 40" fill="none" xmlns="http://www.w3.org/2000/svg">
<path fill-rule="evenodd" clip-rule="evenodd" d="M22.3999 4C25.9437 4 28.8165 6.87282 28.8165 10.4166L28.8145 10.5781C31.0291 11.1464 32.6665 13.157 32.6665 15.5499C32.6665 18.2991 30.5054 20.5434 27.7894 20.6769L27.5332 20.6832H13.4166L13.4171 20.6545C9.81941 20.3306 7 17.307 7 13.6249C7 9.72675 10.1601 6.56665 14.0583 6.56665C15.0601 6.56665 16.0131 6.77535 16.8763 7.15164C17.9922 5.265 20.0483 4 22.3999 4Z" fill="#B5C3D4"/>
<circle cx="20" cy="25" r="9" stroke="#849CB8" stroke-width="1.125" stroke-linecap="round" stroke-dasharray="2.49 2.49"/>
<g clip-path="url(#clip0_3950_24777)">
<path fill-rule="evenodd" clip-rule="evenodd" d="M26 25.9165C26 24.3058 27.3058 23 28.9165 23C30.5272 23 31.833 24.3058 31.833 25.9165C31.833 27.5272 30.5272 28.833 28.9165 28.833C27.3058 28.833 26 27.5272 26 25.9165Z" fill="#415670"/>
<path fill-rule="evenodd" clip-rule="evenodd" d="M25.0555 28.9025C26.0313 28.2213 27.3329 28 29.0005 28C30.6646 28 31.9643 28.2204 32.9392 28.8981C33.9858 29.6255 34.6281 30.8613 34.9705 32.6587C35.0977 33.3267 34.7969 34 34.3809 34H23.6163C23.2021 34 22.903 33.3297 23.0292 32.6654C23.3706 30.8681 24.0107 29.6318 25.0555 28.9025Z" fill="#415670"/>
</g>
<g clip-path="url(#clip1_3950_24777)">
<path fill-rule="evenodd" clip-rule="evenodd" d="M8 16.9165C8 15.3058 9.30576 14 10.9165 14C12.5272 14 13.833 15.3058 13.833 16.9165C13.833 18.5272 12.5272 19.833 10.9165 19.833C9.30576 19.833 8 18.5272 8 16.9165Z" fill="#415670"/>
<path fill-rule="evenodd" clip-rule="evenodd" d="M7.05546 19.9025C8.0313 19.2213 9.33295 19 11.0005 19C12.6646 19 13.9643 19.2204 14.9392 19.8981C15.9858 20.6255 16.6281 21.8613 16.9705 23.6587C17.0977 24.3267 16.7969 25 16.3809 25H5.61633C5.20209 25 4.903 24.3297 5.02918 23.6654C5.37058 21.8681 6.01065 20.6318 7.05546 19.9025Z" fill="#415670"/>
</g>
<defs>
<clipPath id="clip0_3950_24777">
<rect width="16.6667" height="16.6667" fill="white" transform="translate(20 22)"/>
</clipPath>
<clipPath id="clip1_3950_24777">
<rect width="16.6667" height="16.6667" fill="white" transform="translate(2 13)"/>
</clipPath>
</defs>
</svg>
