<svg width="20" height="20" viewBox="0 0 20 20" fill="none" xmlns="http://www.w3.org/2000/svg">
<path fill-rule="evenodd" clip-rule="evenodd" d="M14.4196 2.50118C15.142 2.43205 15.871 2.52151 16.5553 2.76331C17.2396 3.0051 17.863 3.3934 18.3817 3.90107C18.9004 4.40874 19.302 5.02354 19.5584 5.70252C19.561 5.7094 19.5634 5.71635 19.5656 5.72338C19.6917 6.13205 19.6506 6.57408 19.4512 6.95242C19.252 7.33002 18.9114 7.61337 18.504 7.74051L13.6632 9.31128L13.357 9.41032L12.4972 12.3525C12.4535 12.5182 12.3679 12.6699 12.2486 12.793C12.1292 12.9162 11.9801 13.0067 11.8158 13.0556L9.63467 13.7638C9.46369 13.8341 9.27697 13.8577 9.09367 13.8321C8.90423 13.8056 8.72574 13.7275 8.5777 13.6064C8.42966 13.4853 8.31779 13.3258 8.25431 13.1453C8.19099 12.9653 8.17827 12.7713 8.21756 12.5846L8.55179 10.9552L4.09811 12.3949C3.90311 12.4661 3.696 12.4984 3.48853 12.4897C3.27837 12.481 3.07204 12.4306 2.88157 12.3414C2.6911 12.2521 2.52027 12.1259 2.37906 11.97C2.23784 11.8141 2.12906 11.6317 2.05903 11.4333L2.05586 11.424L0.398718 6.28111L0.395191 6.26948C0.32491 6.02295 0.353437 5.75872 0.474728 5.53288C0.595891 5.30727 0.800101 5.13767 1.0441 5.05998L3.00087 4.43154L3.00374 4.43062C3.20683 4.3673 3.42467 4.36941 3.62647 4.43668C3.82827 4.50395 4.00383 4.63297 4.12829 4.80547C4.13261 4.81147 4.13676 4.81761 4.1407 4.82387L5.31129 6.67937L12.383 3.15722C13.0063 2.79377 13.7012 2.56991 14.4196 2.50118Z" fill="white"/>
<path opacity="0.6" fill-rule="evenodd" clip-rule="evenodd" d="M19.9855 18.5545C19.9855 17.7655 19.3459 17.126 18.5569 17.126H1.43638C0.647406 17.126 0.0078125 17.7655 0.0078125 18.5545C0.0078125 19.3435 0.647406 19.9831 1.43638 19.9831H18.5569C19.3459 19.9831 19.9855 19.3435 19.9855 18.5545Z" fill="white"/>
</svg>
