<svg width="24" height="24" viewBox="0 0 24 24" fill="none" xmlns="http://www.w3.org/2000/svg">
<path opacity="0.4" fill-rule="evenodd" clip-rule="evenodd" d="M10.9898 3.41842C11.5477 2.86053 12.4523 2.86053 13.0102 3.41842L21.5816 11.9898C22.1394 12.5477 22.1394 13.4523 21.5816 14.0102C21.0237 14.568 20.1191 14.568 19.5613 14.0102L12 6.44887L4.43873 14.0102C3.88083 14.568 2.97631 14.568 2.41842 14.0102C1.86053 13.4523 1.86053 12.5477 2.41842 11.9898L10.9898 3.41842Z" fill="white"/>
<path d="M19.1416 13.5801V20.5713C19.1416 21.3603 18.5019 22 17.7129 22H13.999V16C13.999 14.8954 13.1036 14 11.999 14C10.8945 14 9.99902 14.8954 9.99902 16V22H6.28418C5.49537 21.9998 4.85645 21.3602 4.85645 20.5713L4.85547 13.5801L11.999 6.44043L19.1416 13.5801Z" fill="white"/>
<path opacity="0.4" fill-rule="evenodd" clip-rule="evenodd" d="M14 22H10V16C10 14.8954 10.8954 14 12 14C13.1046 14 14 14.8954 14 16V22Z" fill="white"/>
</svg>
